<?xml version="1.0" encoding="utf-8"?>
<!-- Generator: Adobe Illustrator 18.1.0, SVG Export Plug-In . SVG Version: 6.00 Build 0)  -->
<!DOCTYPE svg PUBLIC "-//W3C//DTD SVG 1.1//EN" "http://www.w3.org/Graphics/SVG/1.1/DTD/svg11.dtd">
<svg version="1.1" id="Layer_1" xmlns="http://www.w3.org/2000/svg" xmlns:xlink="http://www.w3.org/1999/xlink" x="0px" y="0px"
	 viewBox="0 0 32 32" enable-background="new 0 0 32 32" xml:space="preserve">
<g>
	<path fill="#5AB552" d="M7.7,4.5c0.6-0.3,1.2-0.6,1.8-0.9c1.3-0.5,2.7-0.9,4-1L15,4.4l-0.7,1.8c-1.4,0.3-2.6,0.8-3.8,1.5
		c-0.1,0.1-0.2,0.1-0.3,0.2L10,5.4L7.7,4.5z"/>
	<path fill="#5AB552" d="M7,5l2.4,0.9l0.2,2.3c-1.3,0.9-2.3,2.2-3,3.6c-0.1,0.1-0.1,0.3-0.2,0.4l-1.7-2l-2.7,0.6
		c0.7-1.5,1.6-2.8,2.8-4C5.5,6.1,6.3,5.5,7,5z"/>
	<path fill="#5AB552" d="M22.8,21.1c0.3-0.4,0.5-0.9,0.6-1.3l2.6,3.1l4.3-0.9c-0.2,0.7-0.5,1.4-0.9,2c-0.9,1.7-2.1,3.2-3.5,4.5
		c-1.5,1.3-3.2,2.2-5,2.8c0,0-0.1,0-0.1,0l-3.2-2.7l0.8-3.7c0,0,0,0,0.1,0C20.3,24,21.7,22.8,22.8,21.1z"/>
	<path fill="#5AB552" d="M28.2,6.4c0.3,0.4,0.5,0.7,0.8,1.1c1,1.7,1.7,3.4,2.1,5.3c0.4,1.9,0.4,3.8,0.2,5.7
		c-0.1,0.9-0.3,1.8-0.6,2.7l-4.3,0.9L23.6,19c0.3-1.2,0.3-2.4,0.1-3.6c-0.3-1.5-0.9-2.8-2-3.8l4.7-0.6L28.2,6.4z"/>
	<path fill="#5AB552" d="M1.8,11.4l2.8-0.6l1.7,2c-0.5,1.5-0.6,3-0.4,4.5c0.1,0.4,0.2,0.9,0.3,1.3l-3-0.7L1,20.5
		c-0.3-1.1-0.4-2.2-0.4-3.4C0.7,15.2,1,13.3,1.8,11.4C1.8,11.5,1.8,11.5,1.8,11.4z"/>
	<path fill="#5AB552" d="M6.4,19.4c0.4,1.1,1.1,2.2,1.9,3.1c0.6,0.7,1.3,1.3,2.1,1.8l-2.9,1.7l0.2,3.8c-1-0.6-1.9-1.3-2.7-2.2
		c-1.4-1.4-2.4-3-3.1-4.8c-0.2-0.5-0.4-1-0.5-1.5l2.2-2.6L6.4,19.4z"/>
	<path fill="#5AB552" d="M11,24.6c0.6,0.3,1.3,0.6,2,0.7c1.6,0.4,3.2,0.3,4.7-0.2l-0.8,3.7l3.2,2.7c-1.6,0.4-3.2,0.6-4.9,0.5
		c-1.9-0.1-3.8-0.5-5.6-1.2c-0.5-0.2-0.9-0.4-1.4-0.7L8,26.2L11,24.6z"/>
	<path fill="#5AB552" d="M27.8,5.8L26,10.5L21.2,11c-0.1-0.1-0.3-0.2-0.4-0.4c-1.6-1.2-3.4-1.9-5.3-2.1c-0.5,0-0.9-0.1-1.3,0
		l1.7-4.3l-3.6-4.1C13.2,0,14.3,0,15.4,0c0.7,0,1.3,0.1,2,0.2c0.9,0.1,1.8,0.3,2.7,0.5c1.9,0.5,3.6,1.4,5.1,2.6
		C26.1,4,27,4.9,27.8,5.8z"/>
	<g id="Colour_8_">
	</g>
</g>
</svg>
