<svg xmlns="http://www.w3.org/2000/svg" viewBox="0 0 32 32" enable-background="new 0 0 32 32"><path fill-rule="evenodd" clip-rule="evenodd" fill="#FF8000" d="M32 25.1c0 2.9-2.3 5.1-5.3 5.3L5.3 32C2.4 32 0 29.6 0 26.7V5.3C0 2.4 2.4 0 5.3 0l21.5 1.7c3 .1 5.2 2.3 5.2 5.2v18.2z"/><path fill-rule="evenodd" clip-rule="evenodd" fill="#fff" d="M14.5 10.3c-.3 1.3-.5 2.5-.8 3.8h5c1.3 0 2.6-.1 2.8.9.1.3 0 .8-.1 1.1-.2.7-.5 1.2-1.1 1.4-.3.1-.7.1-1.1.1H13c-.3 1.4-.6 2.8-.9 4.1 2.8 0 5.5-.1 8.2-.1 1.1 0 1.9.3 1.8 1.5-.1.5-.2.9-.4 1.3s-.4.7-.9.8c-.4.1-1 .1-1.5.1h-3.2c-2.2 0-4.3.1-6.5.1-1.1 0-1.8-.4-2-1.3-.1-.5 0-1 .1-1.5 1-4.6 1.9-9.2 2.9-13.8.1-.5.2-.9.4-1.3.3-.5.8-.9 1.4-1.1.7-.2 1.6-.1 2.4-.1h1.6c1.6 0 3.2.1 4.9.1h1.6c1.1 0 2.1.1 2.2 1.1.1.5-.1 1-.2 1.4-.1.4-.3.8-.7 1-.3.2-.9.2-1.4.2-2.8.3-5.6.2-8.3.2z"/></svg>