<?xml version="1.0" encoding="utf-8"?>
<!-- Generator: Adobe Illustrator 18.1.0, SVG Export Plug-In . SVG Version: 6.00 Build 0)  -->
<!DOCTYPE svg PUBLIC "-//W3C//DTD SVG 1.1//EN" "http://www.w3.org/Graphics/SVG/1.1/DTD/svg11.dtd">
<svg version="1.1" id="Layer_1" xmlns="http://www.w3.org/2000/svg" xmlns:xlink="http://www.w3.org/1999/xlink" x="0px" y="0px"
	 viewBox="0 0 32 32" enable-background="new 0 0 32 32" xml:space="preserve">
<path fill="#AD29B6" d="M31.6,12.5H20.4l-6.5,6.5h9c-1.2,2.6-3.8,4.5-6.9,4.5c-4.1,0-7.5-3.4-7.5-7.5c0-4.2,3.4-7.5,7.5-7.5
	c1.5,0,2.9,0.4,4.1,1.2l6.1-6C23.4,1.4,19.9,0,16,0C7.2,0,0,7.2,0,16c0,8.8,7.2,16,16,16c8.8,0,16-7.2,16-16
	C32,14.8,31.9,13.7,31.6,12.5"/>
</svg>
