<?xml version="1.0" encoding="utf-8"?>
<!-- Generator: Adobe Illustrator 18.1.0, SVG Export Plug-In . SVG Version: 6.00 Build 0)  -->
<!DOCTYPE svg PUBLIC "-//W3C//DTD SVG 1.1//EN" "http://www.w3.org/Graphics/SVG/1.1/DTD/svg11.dtd">
<svg version="1.1" id="Layer_1" xmlns="http://www.w3.org/2000/svg" xmlns:xlink="http://www.w3.org/1999/xlink" x="0px" y="0px"
	 viewBox="0 0 32 32" enable-background="new 0 0 32 32" xml:space="preserve">
<path fill="#0F2105" d="M30.1,32H1.9C0.9,32,0,31.1,0,30.1V1.9C0,0.9,0.9,0,1.9,0h28.2C31.1,0,32,0.9,32,1.9v28.2
	C32,31.1,31.1,32,30.1,32"/>
<path fill="#2BDE73" d="M14.6,13.2l3.2-4.6c0.6-0.9,1.4-1.3,2.3-1.3c0.8,0,1.5,0.3,2,0.8c0.6,0.6,0.9,1.2,0.9,2
	c0,0.6-0.2,1.1-0.5,1.5l-2.9,4.2l3.5,4.5c0.4,0.4,0.5,1,0.5,1.6c0,0.8-0.3,1.5-0.8,2c-0.6,0.6-1.2,0.9-2,0.9c-0.9,0-1.5-0.3-2-0.8
	l-4.3-5.4v3c0,0.9-0.1,1.5-0.4,2c-0.5,0.9-1.3,1.3-2.3,1.3c-0.9,0-1.7-0.3-2.2-0.9C9.2,23.2,9,22.4,9,21.5v-11
	c0-0.9,0.2-1.7,0.7-2.2c0.5-0.6,1.2-0.9,2.1-0.9c0.9,0,1.6,0.3,2.1,0.9c0.3,0.3,0.5,0.7,0.6,1c0.1,0.2,0.1,0.6,0.1,1.2V13.2"/>
</svg>
