<?xml version="1.0" encoding="utf-8"?>
<!-- Generator: Adobe Illustrator 18.1.0, SVG Export Plug-In . SVG Version: 6.00 Build 0)  -->
<!DOCTYPE svg PUBLIC "-//W3C//DTD SVG 1.1//EN" "http://www.w3.org/Graphics/SVG/1.1/DTD/svg11.dtd">
<svg version="1.1" id="Layer_1" xmlns="http://www.w3.org/2000/svg" xmlns:xlink="http://www.w3.org/1999/xlink" x="0px" y="0px"
	 viewBox="0 0 32 32" enable-background="new 0 0 32 32" xml:space="preserve">
<polyline fill="#E7DFDF" points="20.3,16.2 12.7,11.2 21.3,15.7 20.3,16.2 "/>
<linearGradient id="SVGID_1_" gradientUnits="userSpaceOnUse" x1="16" y1="27.0076" x2="16" y2="4.9756">
	<stop  offset="0" style="stop-color:#B31217"/>
	<stop  offset="1" style="stop-color:#E52D27"/>
</linearGradient>
<path fill="url(#SVGID_1_)" d="M30.4,6.4c-1.2-1.3-2.6-1.2-3.2-1.2C22.7,4.9,16,5,16,5h0c0,0-6.7-0.1-11.2,0.2c-0.6,0.1-2,0-3.2,1.3
	c-1,1-1.3,3.1-1.3,3.1S0,12,0,14.5v2.9c0,2.5,0.3,4.9,0.3,4.9s0.3,2.2,1.3,3.2c1.2,1.3,2.8,1.1,3.5,1.2C7.5,27,14.6,27,15.8,27h0.6
	c1.6,0,7,0.1,10.8-0.2c0.6-0.1,2,0,3.2-1.3c1-1,1.3-3.1,1.3-3.1s0.3-2.6,0.3-5.1v-2.4c0-2.6-0.3-5.2-0.3-5.2S31.4,7.4,30.4,6.4z
	 M12.7,20.2l0-9l8.6,4.5L12.7,20.2z"/>
</svg>
